<svg xmlns="http://www.w3.org/2000/svg" viewBox="0 0 400 420" fill="none">
    <ellipse cx="200" cy="404" rx="66" ry="11" fill="#0a1628" opacity="0.06"/>
    <rect x="172" y="298" width="26" height="88" rx="13" fill="#4a6fa5"/>
    <rect x="202" y="298" width="26" height="88" rx="13" fill="#4a6fa5"/>
    <path d="M162 384 h32 v6 a16 8 0 0 1 -32 0z" fill="#33456b"/>
    <path d="M206 384 h32 v6 a16 8 0 0 1 -32 0z" fill="#33456b"/>
    <rect x="140" y="232" width="24" height="86" rx="12" fill="#f2a03d"/>
    <rect x="236" y="232" width="24" height="86" rx="12" fill="#f2a03d"/>
    <circle cx="152" cy="322" r="13" fill="#d29b6e"/>
    <circle cx="248" cy="322" r="13" fill="#d29b6e"/>
    <path d="M156 236 q44 -26 88 0 l8 74 q-52 20 -104 0z" fill="#f2a03d"/>
    <rect x="188" y="206" width="24" height="26" fill="#d29b6e"/>
    <circle cx="142" cy="166" r="10" fill="#d29b6e"/>
    <circle cx="258" cy="166" r="10" fill="#d29b6e"/>
    <circle cx="200" cy="162" r="60" fill="#d29b6e"/>
    <path d="M138 160 a62 62 0 0 1 124 0 q8 -56 -62 -56 q-70 0 -62 56z" fill="#2b2320"/>
        <circle cx="150" cy="120" r="22" fill="#2b2320"/><circle cx="200" cy="104" r="26" fill="#2b2320"/><circle cx="250" cy="120" r="22" fill="#2b2320"/>
    <circle cx="181" cy="164" r="6" fill="#2b2320"/>
    <circle cx="219" cy="164" r="6" fill="#2b2320"/>
    <circle cx="169" cy="180" r="7" fill="#e8867e" opacity="0.45"/>
    <circle cx="231" cy="180" r="7" fill="#e8867e" opacity="0.45"/>
    <path d="M184 188 q16 15 32 0" stroke="#8a4b38" stroke-width="5" stroke-linecap="round"/>
    
  </svg>
